<svg width="157" height="41" viewBox="0 0 157 41" fill="none" xmlns="http://www.w3.org/2000/svg">
<g filter="url(#filter0_i)">
<path d="M2.60938 33.2891C1.11198 33.6667 0.363281 33.5104 0.363281 32.8203C0.363281 32.5208 0.565104 32.1693 0.96875 31.7656C1.38542 31.362 1.70443 31.0299 1.92578 30.7695C2.14714 30.5091 2.31641 30.2617 2.43359 30.0273C2.69401 29.5195 2.83073 28.8294 2.84375 27.957C2.86979 27.0716 2.88932 26.2448 2.90234 25.4766C2.92839 24.7083 2.94792 23.8359 2.96094 22.8594C2.98698 21.8828 3.00651 20.8542 3.01953 19.7734C3.04557 18.6927 3.0651 17.5924 3.07812 16.4727C3.09115 15.3398 3.10417 14.2396 3.11719 13.1719C3.18229 8.26302 3.1888 5.55469 3.13672 5.04688C3.08464 4.52604 2.98698 4.13542 2.84375 3.875C2.71354 3.60156 2.55078 3.35417 2.35547 3.13281C2.17318 2.91146 1.95833 2.70312 1.71094 2.50781C1.47656 2.3125 1.28125 2.14323 1.125 2C0.877604 1.77865 0.753906 1.57031 0.753906 1.375C0.753906 1.17969 0.903646 1.08203 1.20312 1.08203L2.04297 1.10156C3.69661 1.10156 4.99219 1.03646 5.92969 0.90625C6.86719 0.763021 7.4401 0.691406 7.64844 0.691406C7.86979 0.691406 7.98047 0.769531 7.98047 0.925781C7.98047 1.08203 7.84375 1.29688 7.57031 1.57031C6.52865 2.61198 5.83854 3.38021 5.5 3.875C5.16146 4.36979 4.97917 4.66276 4.95312 4.75391C4.9401 4.83203 4.92057 4.98177 4.89453 5.20312C4.88151 5.41146 4.86849 5.66536 4.85547 5.96484C4.84245 6.26432 4.82943 6.58984 4.81641 6.94141C4.81641 7.27995 4.8099 7.61198 4.79688 7.9375C4.78385 8.91406 4.77734 9.48698 4.77734 9.65625C5.32422 8.23698 6.41146 6.73307 8.03906 5.14453C9.19792 4.02474 10.5 3.21094 11.9453 2.70312C13.3125 2.22135 14.8815 2.18229 16.6523 2.58594C18.3451 2.97656 19.5625 3.97917 20.3047 5.59375C20.6953 6.45312 20.8906 7.50781 20.8906 8.75781C20.8906 9.99479 20.7083 11.0365 20.3438 11.8828C19.9792 12.7161 19.4974 13.4453 18.8984 14.0703C18.3125 14.6953 17.6354 15.2292 16.8672 15.6719C16.112 16.1146 15.3372 16.5052 14.543 16.8438L10.1094 18.4844C16.9714 25.5286 20.5781 29.1029 20.9297 29.207C21.3594 29.3633 21.8932 29.4284 22.5312 29.4023C23.1823 29.3633 23.651 29.3568 23.9375 29.3828C24.6536 29.4219 25.0117 29.5651 25.0117 29.8125C25.0117 30.0599 24.7253 30.4635 24.1523 31.0234C22.9414 32.1823 22.1211 33.2109 21.6914 34.1094C21.457 34.5651 21.2422 34.8581 21.0469 34.9883C20.8516 35.1315 20.7018 35.2031 20.5977 35.2031C19.9987 35.2031 19.6992 34.0052 19.6992 31.6094C19.6992 31.1016 19.6471 30.8151 19.543 30.75C19.4518 30.6719 19.237 30.4701 18.8984 30.1445C18.5729 29.806 18.1562 29.3763 17.6484 28.8555C17.1406 28.3216 16.5677 27.7292 15.9297 27.0781C15.2917 26.4141 14.6341 25.737 13.957 25.0469C13.293 24.3438 12.6354 23.6602 11.9844 22.9961C11.3464 22.319 10.7604 21.7135 10.2266 21.1797C9.01562 19.9297 8.31901 19.2331 8.13672 19.0898C7.96745 18.9466 7.79167 18.7253 7.60938 18.4258C7.42708 18.1263 7.33594 17.8854 7.33594 17.7031C7.33594 17.3125 7.60286 17.0846 8.13672 17.0195C8.67057 16.9414 9.3151 16.8177 10.0703 16.6484C10.8385 16.4792 11.6263 16.2513 12.4336 15.9648C13.2409 15.6784 14.0352 15.3268 14.8164 14.9102C15.5977 14.4805 16.2943 13.9792 16.9062 13.4062C18.2734 12.1042 18.957 10.5872 18.957 8.85547C18.957 7.11068 18.5664 5.86068 17.7852 5.10547C17.0039 4.33724 15.806 3.95312 14.1914 3.95312C12.5898 3.95312 11.0404 4.63021 9.54297 5.98438C7.78516 7.57292 6.37891 9.64323 5.32422 12.1953C5.0638 12.8333 4.88151 13.3411 4.77734 13.7188V29.0898C4.77734 29.3893 4.9401 29.6823 5.26562 29.9688C6.13802 30.763 6.65234 31.2643 6.80859 31.4727C6.96484 31.668 7.08854 31.8372 7.17969 31.9805C7.7526 32.8138 7.6224 33.2305 6.78906 33.2305L4.64062 33.0742C3.82031 33.0742 3.14323 33.1458 2.60938 33.2891ZM51.6133 28.7773C51.6133 29.5065 51.2292 29.7474 50.4609 29.5C49.2109 29.1224 48.4557 28.9792 48.1953 29.0703C47.9349 29.1484 47.5768 29.2917 47.1211 29.5C46.6784 29.6953 46.151 29.8971 45.5391 30.1055C43.4167 30.8346 41.0534 31.043 38.4492 30.7305C36.5742 30.5091 34.8359 29.9297 33.2344 28.9922C31.4115 27.9375 30.1159 26.3424 29.3477 24.207C28.944 23.0872 28.7422 21.7852 28.7422 20.3008C28.7422 18.8034 28.9375 17.4688 29.3281 16.2969C29.7318 15.125 30.2656 14.0768 30.9297 13.1523C31.5938 12.2279 32.3555 11.4336 33.2148 10.7695C34.0872 10.1055 34.9922 9.55208 35.9297 9.10938C38.5859 7.84635 41.4505 7.52083 44.5234 8.13281C46.7891 8.60156 48.4362 9.63672 49.4648 11.2383C49.9987 12.0716 50.2656 13.0156 50.2656 14.0703C50.2656 15.112 50.1549 15.9583 49.9336 16.6094C49.7122 17.2604 49.4193 17.8268 49.0547 18.3086C48.6901 18.7904 48.2734 19.194 47.8047 19.5195C47.349 19.832 46.8802 20.0859 46.3984 20.2812C45.513 20.6458 44.7578 20.8281 44.1328 20.8281C42.6875 20.8281 41.5872 20.7174 40.832 20.4961C40.0898 20.2617 39.4518 20.125 38.918 20.0859C38.3841 20.0339 37.9349 20.0013 37.5703 19.9883C37.2057 19.9622 36.9258 19.9102 36.7305 19.832C36.5482 19.7409 36.457 19.5977 36.457 19.4023C36.457 19.0378 36.6458 18.6927 37.0234 18.3672C37.9349 17.5859 38.6445 16.7721 39.1523 15.9258C39.7513 15.0013 40.3047 14.7734 40.8125 15.2422C40.9557 15.3724 41.0534 15.776 41.1055 16.4531C41.2096 17.7943 41.5026 18.5755 41.9844 18.7969C42.3229 18.9922 43.0977 19.0898 44.3086 19.0898C45.1029 19.0898 45.9297 18.6667 46.7891 17.8203C47.7396 16.8958 48.2148 15.8932 48.2148 14.8125C48.2148 11.3229 45.8385 9.57812 41.0859 9.57812C38.3516 9.57812 35.9427 10.6458 33.8594 12.7812C31.8021 14.9036 30.7734 17.3385 30.7734 20.0859C30.7734 22.9505 31.6523 25.1771 33.4102 26.7656C35.1289 28.3021 37.5312 29.0703 40.6172 29.0703C43.4036 29.0703 45.474 28.5625 46.8281 27.5469C47.375 27.1432 47.7721 26.6745 48.0195 26.1406C48.2799 25.6068 48.4818 25.1901 48.625 24.8906C48.7812 24.5911 48.931 24.3503 49.0742 24.168C49.2174 23.9727 49.3802 23.875 49.5625 23.875C49.7578 23.875 49.9076 23.9206 50.0117 24.0117C50.1159 24.0898 50.194 24.1875 50.2461 24.3047C50.2721 24.3568 50.3242 24.6302 50.4023 25.125C50.5977 26.2969 50.806 27.0846 51.0273 27.4883C51.418 28.1654 51.6133 28.5951 51.6133 28.7773ZM76.8281 26.0234C76.8281 27.5859 77.0234 29.0117 77.4141 30.3008C77.7396 31.2904 77.5898 31.7852 76.9648 31.7852C76.7044 31.7852 76.3854 31.694 76.0078 31.5117C75.6302 31.3164 75.3503 31.1406 75.168 30.9844C74.9987 30.8281 74.8359 30.6914 74.6797 30.5742C74.1589 30.1576 73.2734 30.0859 72.0234 30.3594C69.5365 30.8802 67.7005 31.1406 66.5156 31.1406C65.3307 31.1406 64.3672 31.0755 63.625 30.9453C62.8828 30.8151 62.1276 30.5872 61.3594 30.2617C60.6042 29.9362 59.862 29.4935 59.1328 28.9336C58.4036 28.3607 57.7526 27.6445 57.1797 26.7852C55.9167 24.8971 55.2852 22.4688 55.2852 19.5C55.2852 17 55.9948 14.8385 57.4141 13.0156C58.5859 11.5312 60.181 10.3724 62.1992 9.53906C63.8789 8.84896 65.5521 8.50391 67.2188 8.50391L70.3047 8.77734C71.3333 8.77734 72.2122 8.41276 72.9414 7.68359C73.2799 7.34505 73.638 7.17578 74.0156 7.17578C74.5495 7.17578 74.7253 7.44922 74.543 7.99609C73.9831 9.67578 73.7031 11.0951 73.7031 12.2539C73.7031 12.2539 73.7292 12.4818 73.7812 12.9375C73.7812 13.1458 73.7292 13.3281 73.625 13.4844C73.5339 13.6406 73.4167 13.7188 73.2734 13.7188C73 13.7188 72.7201 13.5169 72.4336 13.1133C72.1602 12.7096 71.9323 12.3581 71.75 12.0586C71.5677 11.7591 71.3854 11.4922 71.2031 11.2578C70.7734 10.75 70.3112 10.4635 69.8164 10.3984C68.6576 10.2422 67.7331 10.1641 67.043 10.1641C66.3529 10.1641 65.6237 10.2617 64.8555 10.457C64.0872 10.6393 63.332 10.9062 62.5898 11.2578C61.8607 11.6094 61.1706 12.0456 60.5195 12.5664C59.8815 13.0872 59.3151 13.6797 58.8203 14.3438C57.7656 15.7891 57.2383 17.4297 57.2383 19.2656C57.2383 21.1016 57.5117 22.6836 58.0586 24.0117C58.6055 25.3268 59.3216 26.388 60.207 27.1953C61.8607 28.6797 64.0286 29.4219 66.7109 29.4219C67.8438 29.4219 68.8919 29.3177 69.8555 29.1094C70.819 28.901 71.5612 28.7188 72.082 28.5625C72.6159 28.4062 73.0521 28.25 73.3906 28.0938C73.7422 27.9245 74.0156 27.7487 74.2109 27.5664C74.4193 27.3841 74.5885 27.1953 74.7188 27L75.4414 25.6523C75.7148 25.1445 76.0143 24.8906 76.3398 24.8906C76.6654 24.8906 76.8281 25.2682 76.8281 26.0234ZM84.2695 32.8984C83.6055 32.8984 83.2734 32.651 83.2734 32.1562C83.2734 31.9479 83.4557 31.6029 83.8203 31.1211C84.1849 30.6263 84.5365 30.151 84.875 29.6953C85.2266 29.2266 85.4219 28.862 85.4609 28.6016L85.8906 12.4492C85.8776 12.0586 85.7409 11.7135 85.4805 11.4141C85.2331 11.1146 84.9596 10.8281 84.6602 10.5547C84.3607 10.2812 84.0872 10.0143 83.8398 9.75391C83.5924 9.49349 83.4688 9.21354 83.4688 8.91406C83.4688 8.34115 83.931 8.16536 84.8555 8.38672C85.5586 8.55599 86.3138 8.64062 87.1211 8.64062L89.3281 8.54297C89.9922 8.54297 90.3242 8.79036 90.3242 9.28516C90.3242 9.55859 90.1224 9.85156 89.7188 10.1641C89.3281 10.4635 89.0026 10.724 88.7422 10.9453C88.4948 11.1667 88.2995 11.362 88.1562 11.5312C87.9089 11.8047 87.7852 12.0586 87.7852 12.293L87.375 27.3125L87.3945 28.6406C87.3945 29.2005 87.5833 29.7604 87.9609 30.3203C88.3516 30.8672 88.6315 31.2643 88.8008 31.5117C88.9831 31.7591 89.0742 31.974 89.0742 32.1562C89.0742 32.612 88.7031 32.8398 87.9609 32.8398L87.1016 32.8008L84.2695 32.8984ZM89.2109 1.375C90.3568 1.375 90.6432 1.7526 90.0703 2.50781L87.9023 5.125C87.4076 6.04948 86.9518 6.06901 86.5352 5.18359L85.0703 3.32812C84.4583 2.49479 84.1523 1.94792 84.1523 1.6875C84.1523 1.3099 84.3932 1.12109 84.875 1.12109C86.3854 1.30339 87.6484 1.39453 88.6641 1.39453L89.2109 1.375ZM96.0859 40.1445C95.3958 40.1445 95.0508 39.9557 95.0508 39.5781C95.0508 39.3307 95.2005 39.0638 95.5 38.7773C95.8125 38.5039 96.151 38.1979 96.5156 37.8594C97.4922 36.974 97.9805 36.1667 97.9805 35.4375L97.9609 32.5859L97.8828 26.0625L97.7852 18.2305C97.7201 12.1107 97.6615 8.92708 97.6094 8.67969C97.5573 8.41927 97.4727 8.19792 97.3555 8.01562C97.2383 7.82031 97.1016 7.63802 96.9453 7.46875L96.0469 6.49219C95.4479 5.89323 95.1484 5.45703 95.1484 5.18359C95.1484 4.76693 95.4154 4.55859 95.9492 4.55859L97.8047 4.77344C98.3776 4.77344 98.8789 4.72786 99.3086 4.63672C99.7513 4.54557 100.116 4.5 100.402 4.5C101.327 4.5 101.789 4.7474 101.789 5.24219C101.789 5.54167 101.607 5.83464 101.242 6.12109C100.878 6.40755 100.578 6.65495 100.344 6.86328C100.122 7.07161 99.9531 7.26042 99.8359 7.42969C99.6016 7.75521 99.4844 8.02214 99.4844 8.23047C99.4844 8.4388 99.4844 8.67969 99.4844 8.95312C99.4974 9.22656 99.5104 9.53906 99.5234 9.89062L99.5625 12.1758C100.201 10.8867 101.21 9.8776 102.59 9.14844C104.191 8.28906 105.995 8.0026 108 8.28906C110.852 8.67969 112.694 10.2292 113.527 12.9375C113.775 13.7448 113.898 14.6693 113.898 15.7109C113.898 16.7396 113.768 17.6185 113.508 18.3477C113.247 19.0638 112.902 19.6888 112.473 20.2227C112.056 20.7435 111.574 21.1797 111.027 21.5312C110.493 21.8828 109.953 22.1628 109.406 22.3711C108.43 22.7487 107.655 22.9375 107.082 22.9375C106.522 22.9375 106.073 22.931 105.734 22.918C105.409 22.8919 105.038 22.8398 104.621 22.7617C104.204 22.6836 103.762 22.5729 103.293 22.4297C102.837 22.2734 102.388 22.0716 101.945 21.8242C100.917 21.2513 100.148 20.5026 99.6406 19.5781L99.6992 22.9766C99.7643 26.2448 99.8034 28.9336 99.8164 31.043C99.8294 33.1393 99.8555 34.5 99.8945 35.125C99.9466 35.763 100.038 36.2253 100.168 36.5117C100.311 36.7982 100.487 37.0586 100.695 37.293L102.082 38.7188C102.368 39.0573 102.512 39.3503 102.512 39.5977C102.512 40.0534 102.141 40.2812 101.398 40.2812C101.32 40.2812 101.034 40.2357 100.539 40.1445C100.044 40.0534 99.3021 40.0078 98.3125 40.0078L96.0859 40.1445ZM109.914 20.2031C110.305 19.9427 110.656 19.6172 110.969 19.2266C111.646 18.3281 111.984 17.3125 111.984 16.1797C111.984 15.0469 111.887 14.168 111.691 13.543C111.509 12.9049 111.255 12.3711 110.93 11.9414C110.617 11.4987 110.259 11.1471 109.855 10.8867C109.465 10.6263 109.068 10.4245 108.664 10.2812C107.987 10.0469 107.212 9.92969 106.34 9.92969C105.48 9.92969 104.66 10.112 103.879 10.4766C103.111 10.8411 102.44 11.3034 101.867 11.8633C100.656 13.0612 100.051 14.3307 100.051 15.6719C100.051 18.224 101.346 19.9232 103.938 20.7695C106.203 21.4987 108.195 21.3099 109.914 20.2031ZM141.262 28.7773C141.262 29.5065 140.878 29.7474 140.109 29.5C138.859 29.1224 138.104 28.9792 137.844 29.0703C137.583 29.1484 137.225 29.2917 136.77 29.5C136.327 29.6953 135.799 29.8971 135.188 30.1055C133.065 30.8346 130.702 31.043 128.098 30.7305C126.223 30.5091 124.484 29.9297 122.883 28.9922C121.06 27.9375 119.764 26.3424 118.996 24.207C118.592 23.0872 118.391 21.7852 118.391 20.3008C118.391 18.8034 118.586 17.4688 118.977 16.2969C119.38 15.125 119.914 14.0768 120.578 13.1523C121.242 12.2279 122.004 11.4336 122.863 10.7695C123.736 10.1055 124.641 9.55208 125.578 9.10938C128.234 7.84635 131.099 7.52083 134.172 8.13281C136.438 8.60156 138.085 9.63672 139.113 11.2383C139.647 12.0716 139.914 13.0156 139.914 14.0703C139.914 15.112 139.803 15.9583 139.582 16.6094C139.361 17.2604 139.068 17.8268 138.703 18.3086C138.339 18.7904 137.922 19.194 137.453 19.5195C136.997 19.832 136.529 20.0859 136.047 20.2812C135.161 20.6458 134.406 20.8281 133.781 20.8281C132.336 20.8281 131.236 20.7174 130.48 20.4961C129.738 20.2617 129.1 20.125 128.566 20.0859C128.033 20.0339 127.583 20.0013 127.219 19.9883C126.854 19.9622 126.574 19.9102 126.379 19.832C126.197 19.7409 126.105 19.5977 126.105 19.4023C126.105 19.0378 126.294 18.6927 126.672 18.3672C127.583 17.5859 128.293 16.7721 128.801 15.9258C129.4 15.0013 129.953 14.7734 130.461 15.2422C130.604 15.3724 130.702 15.776 130.754 16.4531C130.858 17.7943 131.151 18.5755 131.633 18.7969C131.971 18.9922 132.746 19.0898 133.957 19.0898C134.751 19.0898 135.578 18.6667 136.438 17.8203C137.388 16.8958 137.863 15.8932 137.863 14.8125C137.863 11.3229 135.487 9.57812 130.734 9.57812C128 9.57812 125.591 10.6458 123.508 12.7812C121.451 14.9036 120.422 17.3385 120.422 20.0859C120.422 22.9505 121.301 25.1771 123.059 26.7656C124.777 28.3021 127.18 29.0703 130.266 29.0703C133.052 29.0703 135.122 28.5625 136.477 27.5469C137.023 27.1432 137.421 26.6745 137.668 26.1406C137.928 25.6068 138.13 25.1901 138.273 24.8906C138.43 24.5911 138.579 24.3503 138.723 24.168C138.866 23.9727 139.029 23.875 139.211 23.875C139.406 23.875 139.556 23.9206 139.66 24.0117C139.764 24.0898 139.842 24.1875 139.895 24.3047C139.921 24.3568 139.973 24.6302 140.051 25.125C140.246 26.2969 140.454 27.0846 140.676 27.4883C141.066 28.1654 141.262 28.5951 141.262 28.7773ZM155.949 10.0078C155.949 10.3984 155.839 10.5938 155.617 10.5938C155.409 10.5938 155.188 10.5026 154.953 10.3203C154.732 10.138 154.51 9.9362 154.289 9.71484C153.677 9.12891 153.267 8.82943 153.059 8.81641C152.85 8.79036 152.596 8.79688 152.297 8.83594C151.997 8.86198 151.678 8.92057 151.34 9.01172C151.001 9.10286 150.656 9.22656 150.305 9.38281C149.953 9.53906 149.641 9.7474 149.367 10.0078C148.716 10.5807 148.391 11.3099 148.391 12.1953C148.391 13.2109 149.276 14.3828 151.047 15.7109C152.427 16.7526 153.41 17.5404 153.996 18.0742C154.582 18.6081 155.07 19.1354 155.461 19.6562C156.333 20.8411 156.77 22.1042 156.77 23.4453C156.77 25.9844 155.35 27.8464 152.512 29.0312C151.6 29.4219 150.897 29.6172 150.402 29.6172C149.908 29.6172 149.478 29.7474 149.113 30.0078C148.762 30.2682 148.436 30.5547 148.137 30.8672C147.837 31.1667 147.57 31.4466 147.336 31.707C147.115 31.9674 146.939 32.0977 146.809 32.0977C146.691 32.0977 146.594 32.0651 146.516 32C146.438 31.9349 146.372 31.8568 146.32 31.7656C146.216 31.5573 146.164 31.3685 146.164 31.1992L146.066 27.7422C146.066 26.1536 146.333 25.5677 146.867 25.9844C146.997 26.0755 147.167 26.2578 147.375 26.5312C147.596 26.8047 147.772 27.013 147.902 27.1562C148.046 27.2995 148.215 27.4167 148.41 27.5078C149.204 27.8854 150.266 27.8789 151.594 27.4883C153.143 27.0326 154.198 26.2057 154.758 25.0078C155.643 23.1198 154.823 21.1016 152.297 18.9531L149.309 16.6289C147.486 15.1836 146.574 13.7057 146.574 12.1953C146.574 9.92969 147.824 8.38021 150.324 7.54688C151.118 7.27344 151.848 7.13672 152.512 7.13672C152.668 7.13672 153.007 6.88932 153.527 6.39453C154.061 5.89974 154.426 5.56771 154.621 5.39844C155.09 4.99479 155.37 4.79297 155.461 4.79297C155.695 4.79297 155.812 5.20312 155.812 6.02344L155.793 7.625L155.949 10.0078Z" fill="#544E4E"/>
</g>
<defs>
<filter id="filter0_i" x="0.363281" y="0.691406" width="156.406" height="43.5898" filterUnits="userSpaceOnUse" color-interpolation-filters="sRGB">
<feFlood flood-opacity="0" result="BackgroundImageFix"/>
<feBlend mode="normal" in="SourceGraphic" in2="BackgroundImageFix" result="shape"/>
<feColorMatrix in="SourceAlpha" type="matrix" values="0 0 0 0 0 0 0 0 0 0 0 0 0 0 0 0 0 0 127 0" result="hardAlpha"/>
<feOffset dy="4"/>
<feGaussianBlur stdDeviation="2"/>
<feComposite in2="hardAlpha" operator="arithmetic" k2="-1" k3="1"/>
<feColorMatrix type="matrix" values="0 0 0 0 0 0 0 0 0 0 0 0 0 0 0 0 0 0 0.25 0"/>
<feBlend mode="normal" in2="shape" result="effect1_innerShadow"/>
</filter>
</defs>
</svg>
